<svg xmlns="http://www.w3.org/2000/svg" width="50" height="50" viewBox="0 0 50 50" fill="none">
  <g clip-path="url(#clip0_2_2)">
    <path d="M50 25C50 11.1929 38.8071 0 25 0C11.1929 0 0 11.1929 0 25C0 38.8071 11.1929 50 25 50C38.8071 50 50 38.8071 50 25Z" fill="#FF005C"/>
    <path d="M17.1861 20.3892V17.1875C14.068 18.1666 11.7851 20.748 11.1293 23.8538C11.004 24.348 10.9375 24.8653 10.9375 25.3981V27.0508H10.9491C11.1494 30.3352 13.8762 32.9375 17.2117 32.9375C20.677 32.9375 23.4858 30.1288 23.4858 26.6633C23.4858 23.198 20.6763 20.3892 17.2117 20.3892H17.1861Z" fill="white"/>
    <path d="M31.9463 29.7358H31.9717V32.9375C35.09 31.9584 37.372 29.377 38.0278 26.2705C38.1531 25.777 38.2205 25.2597 38.2205 24.7269V23.0742H38.2089C38.0086 19.7898 35.2809 17.1875 31.9463 17.1875C28.4809 17.1875 25.672 19.9963 25.672 23.4617C25.672 26.9263 28.4809 29.7358 31.9463 29.7358Z" fill="white"/>
  </g>
  <defs>
    <clipPath id="clip0_2_2">
      <rect width="50" height="50" fill="white"/>
    </clipPath>
  </defs>
</svg>