<svg xmlns="http://www.w3.org/2000/svg" width="720" height="420" viewBox="0 0 720 420" role="img">
  <defs>
    <linearGradient id="storyGrad-generic" x1="0%" y1="0%" x2="100%" y2="100%">
      <stop offset="0%" stop-color="#FF006E"/>
      <stop offset="50%" stop-color="#FF8C00"/>
      <stop offset="100%" stop-color="#FF006E"/>
    </linearGradient>
    <filter id="cardShadow" x="-8%" y="-8%" width="116%" height="120%">
      <feDropShadow dx="0" dy="8" stdDeviation="12" flood-color="#0f172a" flood-opacity="0.08"/>
    </filter>
  </defs>
  <rect width="720" height="420" rx="12" fill="#F1F5F9"/>
  <rect x="48" y="28" width="152" height="28" rx="14" fill="#FFE8F1" stroke="#FF006E" stroke-width="1.5"/>
  <text x="62" y="47" fill="#FF006E" font-size="11" font-weight="700" font-family="system-ui,sans-serif">AI sales chat on PDP</text>
  <g filter="url(#cardShadow)">
    <rect x="48" y="72" width="624" height="288" rx="16" fill="#ffffff"/>
    <g opacity="0.9">
    <circle cx="66" cy="94" r="5" fill="#64748B"/>
    <text x="78" y="98" fill="#64748B" font-size="10" font-family="system-ui,sans-serif">Your store</text>
  </g>
    
    <rect x="220" y="128" width="280" height="220" rx="18" fill="#ffffff" stroke="#E2E8F0" stroke-width="2"/>
    <rect x="220" y="128" width="280" height="44" rx="18" fill="#FF006E"/>
    <text x="360" y="156" text-anchor="middle" fill="#ffffff" font-size="12" font-weight="700" font-family="system-ui,sans-serif">Ask about this product</text>
    <rect x="236" y="186" width="248" height="40" rx="10" fill="#F1F5F9"/>
    <text x="248" y="212" fill="#64748B" font-size="11" font-family="system-ui,sans-serif">Will this fit carry-on rules?</text>
    <rect x="236" y="236" width="248" height="72" rx="10" fill="#FFE8F1"/>
    <text x="248" y="260" fill="#0F172A" font-size="11" font-family="system-ui,sans-serif">Yes — fits most airline bins.</text>
    <text x="248" y="280" fill="#0F172A" font-size="11" font-family="system-ui,sans-serif">Want the Flex size instead?</text>
    <rect x="236" y="320" width="248" height="16" rx="8" fill="#E2E8F0"/>
    <text x="248" y="332" fill="#94A3B8" font-size="9" font-family="system-ui,sans-serif">Type a message…</text>
  </g>
  <text x="360" y="402" text-anchor="middle" fill="#64748B" font-size="11" font-family="system-ui,sans-serif">Embedded chat answers questions and suggests products</text>
</svg>