<svg xmlns="http://www.w3.org/2000/svg" width="720" height="420" viewBox="0 0 720 420" role="img">
  <defs>
    <linearGradient id="storyGrad-kith" x1="0%" y1="0%" x2="100%" y2="100%">
      <stop offset="0%" stop-color="#FF006E"/>
      <stop offset="50%" stop-color="#FF8C00"/>
      <stop offset="100%" stop-color="#FF006E"/>
    </linearGradient>
    <filter id="cardShadow" x="-8%" y="-8%" width="116%" height="120%">
      <feDropShadow dx="0" dy="8" stdDeviation="12" flood-color="#0f172a" flood-opacity="0.08"/>
    </filter>
  </defs>
  <rect width="720" height="420" rx="12" fill="#F1F5F9"/>
  <rect x="48" y="28" width="133.4" height="28" rx="14" fill="#FFE8F1" stroke="#FF006E" stroke-width="1.5"/>
  <text x="62" y="47" fill="#FF006E" font-size="11" font-weight="700" font-family="system-ui,sans-serif">Interactive video</text>
  <g filter="url(#cardShadow)">
    <rect x="48" y="72" width="624" height="288" rx="16" fill="#ffffff"/>
    <g opacity="0.9">
    <circle cx="66" cy="94" r="5" fill="#000000"/>
    <text x="78" y="98" fill="#64748B" font-size="10" font-family="system-ui,sans-serif">Kith</text>
  </g>
    
    <rect x="120" y="128" width="480" height="140" rx="14" fill="#111827"/>
    <circle cx="360" cy="198" r="28" fill="#0F172A" opacity="0.82"/>
  <polygon points="353,199 353,187 369,194" fill="#fff"/>
    <text x="360" y="286" text-anchor="middle" fill="#64748B" font-size="10" font-family="system-ui,sans-serif">Choose an option</text>
    <rect x="138" y="296" width="140" height="40" rx="20" fill="#FF006E" stroke="#FF006E" stroke-width="2"/>
      <text x="208" y="321" text-anchor="middle" fill="#ffffff" font-size="10" font-weight="600" font-family="system-ui,sans-serif">Early access</text><rect x="290" y="296" width="140" height="40" rx="20" fill="#ffffff" stroke="#E2E8F0" stroke-width="2"/>
      <text x="360" y="321" text-anchor="middle" fill="#0F172A" font-size="10" font-weight="600" font-family="system-ui,sans-serif">Enter code</text><rect x="442" y="296" width="140" height="40" rx="20" fill="#ffffff" stroke="#E2E8F0" stroke-width="2"/>
      <text x="512" y="321" text-anchor="middle" fill="#0F172A" font-size="10" font-weight="600" font-family="system-ui,sans-serif">Join list</text>
  </g>
  <text x="360" y="402" text-anchor="middle" fill="#64748B" font-size="11" font-family="system-ui,sans-serif">Branching paths let shoppers choose what to watch next</text>
</svg>