<svg xmlns="http://www.w3.org/2000/svg" width="720" height="420" viewBox="0 0 720 420" role="img">
  <defs>
    <linearGradient id="storyGrad-kith" x1="0%" y1="0%" x2="100%" y2="100%">
      <stop offset="0%" stop-color="#FF006E"/>
      <stop offset="50%" stop-color="#FF8C00"/>
      <stop offset="100%" stop-color="#FF006E"/>
    </linearGradient>
    <filter id="cardShadow" x="-8%" y="-8%" width="116%" height="120%">
      <feDropShadow dx="0" dy="8" stdDeviation="12" flood-color="#0f172a" flood-opacity="0.08"/>
    </filter>
  </defs>
  <rect width="720" height="420" rx="12" fill="#F1F5F9"/>
  <rect x="48" y="28" width="152" height="28" rx="14" fill="#FFE8F1" stroke="#FF006E" stroke-width="1.5"/>
  <text x="62" y="47" fill="#FF006E" font-size="11" font-weight="700" font-family="system-ui,sans-serif">Shoppable video feed</text>
  <g filter="url(#cardShadow)">
    <rect x="48" y="72" width="624" height="288" rx="16" fill="#ffffff"/>
    <g opacity="0.9">
    <circle cx="66" cy="94" r="5" fill="#000000"/>
    <text x="78" y="98" fill="#64748B" font-size="10" font-family="system-ui,sans-serif">Kith</text>
  </g>
    
    <text x="360" y="160" text-anchor="middle" fill="#0F172A" font-size="13" font-weight="700" font-family="system-ui,sans-serif">For You</text>
    <rect x="122" y="180" width="148" height="168" rx="12" fill="#111827"/>
    <circle cx="196" cy="252" r="22" fill="#0F172A" opacity="0.82"/>
  <polygon points="189,253 189,241 205,248" fill="#fff"/>
    <rect x="132" y="316" width="64" height="22" rx="6" fill="#ffffff"/>
    <text x="164" y="331" text-anchor="middle" fill="#0F172A" font-size="10" font-weight="600" font-family="system-ui,sans-serif">Shop $48</text>
    <rect x="286" y="180" width="148" height="168" rx="12" fill="#374151"/>
    <circle cx="360" cy="252" r="22" fill="#0F172A" opacity="0.82"/>
  <polygon points="353,253 353,241 369,248" fill="#fff"/>
    <rect x="450" y="180" width="148" height="168" rx="12" fill="#1F2937"/>
    <circle cx="524" cy="252" r="22" fill="#0F172A" opacity="0.82"/>
  <polygon points="517,253 517,241 533,248" fill="#fff"/>
  </g>
  <text x="360" y="402" text-anchor="middle" fill="#64748B" font-size="11" font-family="system-ui,sans-serif">Scrollable product videos on your homepage</text>
</svg>