<svg xmlns="http://www.w3.org/2000/svg" width="720" height="420" viewBox="0 0 720 420" role="img">
  <defs>
    <linearGradient id="storyGrad-kith" x1="0%" y1="0%" x2="100%" y2="100%">
      <stop offset="0%" stop-color="#FF006E"/>
      <stop offset="50%" stop-color="#FF8C00"/>
      <stop offset="100%" stop-color="#FF006E"/>
    </linearGradient>
    <filter id="cardShadow" x="-8%" y="-8%" width="116%" height="120%">
      <feDropShadow dx="0" dy="8" stdDeviation="12" flood-color="#0f172a" flood-opacity="0.08"/>
    </filter>
  </defs>
  <rect width="720" height="420" rx="12" fill="#F1F5F9"/>
  <rect x="48" y="28" width="183" height="28" rx="14" fill="#FFE8F1" stroke="#FF006E" stroke-width="1.5"/>
  <text x="62" y="47" fill="#FF006E" font-size="11" font-weight="700" font-family="system-ui,sans-serif">Video on collection tiles</text>
  <g filter="url(#cardShadow)">
    <rect x="48" y="72" width="624" height="288" rx="16" fill="#ffffff"/>
    <g opacity="0.9">
    <circle cx="66" cy="94" r="5" fill="#000000"/>
    <text x="78" y="98" fill="#64748B" font-size="10" font-family="system-ui,sans-serif">Kith</text>
  </g>
    
    <text x="360" y="130" text-anchor="middle" fill="#0F172A" font-size="13" font-weight="700" font-family="system-ui,sans-serif">New Arrivals</text>
    <rect x="96" y="144" width="168" height="200" rx="10" fill="#F8FAFC" stroke="#E2E8F0"/>
      <circle cx="180" cy="236" r="26" fill="#0F172A" opacity="0.82"/>
  <polygon points="173,237 173,225 189,232" fill="#fff"/>
      <rect x="108" y="316" width="80" height="10" rx="3" fill="#E2E8F0"/><rect x="276" y="144" width="168" height="200" rx="10" fill="#F8FAFC" stroke="#E2E8F0"/>
      <circle cx="360" cy="236" r="26" fill="#0F172A" opacity="0.82"/>
  <polygon points="353,237 353,225 369,232" fill="#fff"/>
      <rect x="288" y="316" width="80" height="10" rx="3" fill="#E2E8F0"/><rect x="456" y="144" width="168" height="200" rx="10" fill="#F8FAFC" stroke="#E2E8F0"/>
      <text x="540" y="250" text-anchor="middle" fill="#CBD5E1" font-size="22" font-family="system-ui,sans-serif">+</text>
      <rect x="468" y="316" width="80" height="10" rx="3" fill="#E2E8F0"/>
  </g>
  <text x="360" y="402" text-anchor="middle" fill="#64748B" font-size="11" font-family="system-ui,sans-serif">Play-in-place video on category product cards</text>
</svg>