<svg xmlns="http://www.w3.org/2000/svg" width="720" height="420" viewBox="0 0 720 420" role="img">
  <defs>
    <linearGradient id="storyGrad-ourPlace" x1="0%" y1="0%" x2="100%" y2="100%">
      <stop offset="0%" stop-color="#FF006E"/>
      <stop offset="50%" stop-color="#FF8C00"/>
      <stop offset="100%" stop-color="#FF006E"/>
    </linearGradient>
    <filter id="cardShadow" x="-8%" y="-8%" width="116%" height="120%">
      <feDropShadow dx="0" dy="8" stdDeviation="12" flood-color="#0f172a" flood-opacity="0.08"/>
    </filter>
  </defs>
  <rect width="720" height="420" rx="12" fill="#F1F5F9"/>
  <rect x="48" y="28" width="176.8" height="28" rx="14" fill="#FFE8F1" stroke="#FF006E" stroke-width="1.5"/>
  <text x="62" y="47" fill="#FF006E" font-size="11" font-weight="700" font-family="system-ui,sans-serif">Shoppable stories on PDP</text>
  <g filter="url(#cardShadow)">
    <rect x="48" y="72" width="624" height="288" rx="16" fill="#ffffff"/>
    <g opacity="0.9">
    <circle cx="66" cy="94" r="5" fill="#C45C3E"/>
    <text x="78" y="98" fill="#64748B" font-size="10" font-family="system-ui,sans-serif">Our Place</text>
  </g>
    
    <rect x="72" y="124" width="576" height="4" rx="2" fill="#E2E8F0"/>
    <rect x="72" y="136" width="140" height="12" rx="3" fill="#E2E8F0"/>
    <g>
    <circle cx="252" cy="208" r="36" fill="none" stroke="url(#storyGrad-ourPlace)" stroke-width="3.5"/>
    <circle cx="252" cy="208" r="30" fill="#1a1a1a"/>
    <polygon points="246,210 246,202 257,207" fill="#fff"/>
  </g><g>
    <circle cx="324" cy="208" r="36" fill="none" stroke="#CBD5E1" stroke-width="2"/>
    <circle cx="324" cy="208" r="30" fill="#E2E8F0"/>
    
  </g><g>
    <circle cx="396" cy="208" r="36" fill="none" stroke="#CBD5E1" stroke-width="2"/>
    <circle cx="396" cy="208" r="30" fill="#E2E8F0"/>
    
  </g><g>
    <circle cx="468" cy="208" r="36" fill="none" stroke="#CBD5E1" stroke-width="2"/>
    <circle cx="468" cy="208" r="30" fill="#E2E8F0"/>
    
  </g>
  <text x="360" y="274" text-anchor="middle" fill="#64748B" font-size="11" font-family="system-ui,sans-serif">Tap to watch · shop from story</text>
    <rect x="72" y="288" width="200" height="56" rx="8" fill="#F8FAFC" stroke="#E2E8F0"/>
    <text x="172" y="320" text-anchor="middle" fill="#94A3B8" font-size="10" font-family="system-ui,sans-serif">Product gallery</text>
  </g>
  <text x="360" y="402" text-anchor="middle" fill="#64748B" font-size="11" font-family="system-ui,sans-serif">Story rings shoppers see above your product gallery</text>
</svg>