<svg xmlns="http://www.w3.org/2000/svg" width="720" height="420" viewBox="0 0 720 420" role="img">
  <defs>
    <linearGradient id="storyGrad-generic" x1="0%" y1="0%" x2="100%" y2="100%">
      <stop offset="0%" stop-color="#FF006E"/>
      <stop offset="50%" stop-color="#FF8C00"/>
      <stop offset="100%" stop-color="#FF006E"/>
    </linearGradient>
    <filter id="cardShadow" x="-8%" y="-8%" width="116%" height="120%">
      <feDropShadow dx="0" dy="8" stdDeviation="12" flood-color="#0f172a" flood-opacity="0.08"/>
    </filter>
  </defs>
  <rect width="720" height="420" rx="12" fill="#F1F5F9"/>
  <rect x="48" y="28" width="139.60000000000002" height="28" rx="14" fill="#FFE8F1" stroke="#FF006E" stroke-width="1.5"/>
  <text x="62" y="47" fill="#FF006E" font-size="11" font-weight="700" font-family="system-ui,sans-serif">Richer PDP gallery</text>
  <g filter="url(#cardShadow)">
    <rect x="48" y="72" width="624" height="288" rx="16" fill="#ffffff"/>
    <g opacity="0.9">
    <circle cx="66" cy="94" r="5" fill="#64748B"/>
    <text x="78" y="98" fill="#64748B" font-size="10" font-family="system-ui,sans-serif">Your store</text>
  </g>
    
    <text x="204" y="114" text-anchor="middle" fill="#94A3B8" font-size="10" font-weight="600" font-family="system-ui,sans-serif">Before</text>
    <rect x="80" y="124" width="248" height="220" rx="12" fill="#F8FAFC" stroke="#CBD5E1" stroke-dasharray="6 4"/>
    <text x="204" y="238" text-anchor="middle" fill="#94A3B8" font-size="11" font-family="system-ui,sans-serif">Your screenshot</text>
    <text x="492" y="114" text-anchor="middle" fill="#FF006E" font-size="10" font-weight="700" font-family="system-ui,sans-serif">After</text>
    <rect x="368" y="124" width="248" height="220" rx="12" fill="#ffffff" stroke="#FF006E" stroke-width="2"/>
    <g transform="translate(384, 140)"><rect x="0" y="0" width="56" height="56" rx="6" fill="#FCE7F3"/>
     <rect x="64" y="0" width="56" height="56" rx="6" fill="#E2E8F0"/>
     <rect x="128" y="0" width="56" height="56" rx="6" fill="#FDF2F8"/>
     <rect x="0" y="68" width="184" height="100" rx="8" fill="#F1F5F9" stroke="#E2E8F0"/></g>
  </g>
  <text x="360" y="402" text-anchor="middle" fill="#64748B" font-size="11" font-family="system-ui,sans-serif">What changes when Tolstoy is live on your store</text>
</svg>